<svg class="h-auto w-full min-w-[1500px] opacity-0 delay-150 duration-150 text-textMain !opacity-10 dark:text-textMainDark undefined" width="1757" height="749" viewBox="0 0 1757 749" fill="none" xmlns="http://www.w3.org/2000/svg"><path fill-rule="evenodd" clip-rule="evenodd" d="M252.891 13.2695L357.062 117.528V0.345703H358.535V117.523L462.696 13.2695V58.7173L565.254 161.36V44.1816H566.727V161.363L669.277 58.7213V13.2695L773.445 117.524V0.345703H774.918V117.527L879.083 13.2695V58.5258L981.832 161.36V44.1816H983.305V161.363L1085.86 58.7136V13.2695L1190.04 117.528V0.345703H1191.51L1191.51 117.523L1295.67 13.2695V58.7174L1398.23 161.36V44.1816H1399.7V161.363L1502.25 58.7214V13.2695L1606.42 117.524V0.345703H1607.89V117.527L1712.06 13.2695V118.582H1756.76V268.924H1712.06L1712.06 433.961H1756.76V584.303H1712.06V690.201L1607.89 585.943V704.235H1606.42V585.946L1503.87 688.584V734.037L1399.7 629.779V748.071H1398.23V629.782L1294.06 734.037V688.585L1191.51 585.943V704.235H1190.04V585.942L1087.47 688.592V734.037L983.305 629.779V748.071H981.832V629.782L877.664 734.037V688.78L774.918 585.943V704.235H773.445V585.946L670.892 688.584V734.037L566.727 629.779V748.071H565.254V629.782L461.086 734.037V688.585L358.535 585.943V704.235H357.062V585.942L254.498 688.592V734.037L150.332 629.779V748.071H148.859V629.782L44.6914 734.037V628.139H-0.0078125V477.797H44.6914V312.76H-0.0078125V162.418H44.6914V57.1055L148.859 161.36V44.1816H150.332V161.363L252.891 58.7135V13.2695ZM65.6768 395.571L46.1643 376.042V415.1L65.6768 395.571ZM66.7179 394.529L46.1643 373.959V267.715L148.859 164.935V312.319L66.7179 394.529ZM66.7179 396.613L46.1643 417.184V477.797H147.834L66.7179 396.613ZM67.759 395.571L148.859 314.403V476.739L67.759 395.571ZM231.431 395.571L150.332 314.4V476.742L231.431 395.571ZM232.472 396.613L151.36 477.797H208.191V433.961H252.891V417.049L232.472 396.613ZM252.891 414.965L233.513 395.571L252.891 376.176V414.965ZM232.472 394.529L252.891 374.092V268.924H208.191V222.842L150.336 164.935V312.319L232.472 394.529ZM254.497 433.961H356.034L274.917 352.777L254.498 373.213L254.497 433.961ZM273.876 351.735L254.498 371.129V332.341L273.876 351.735ZM274.917 350.693L254.498 330.257V312.76H299.199V179.006L357.062 121.095V268.48L274.917 350.693ZM275.958 351.735L357.062 432.907V270.563L275.958 351.735ZM439.632 351.733L358.535 270.564V432.902L439.632 351.733ZM440.673 352.775L359.56 433.961H461.086V373.206L440.673 352.775ZM441.714 351.733L461.086 332.344V371.122L441.714 351.733ZM461.086 330.26L440.673 350.691L358.535 268.48V121.096L416.387 178.998V312.76H461.086V330.26ZM483.112 396.613L462.696 417.046V433.961H507.402V477.797H564.229L483.112 396.613ZM482.071 395.571L462.696 414.962V376.18L482.071 395.571ZM483.112 394.529L462.701 374.101V268.924H507.402V222.835L565.254 164.935V312.319L483.112 394.529ZM484.153 395.571L565.254 476.739V314.403L484.153 395.571ZM647.826 395.571L566.727 314.4V476.742L647.826 395.571ZM648.867 396.613L567.755 477.797H624.578V433.961H669.277V417.041L648.867 396.613ZM669.277 414.957L649.908 395.571L669.277 376.184V414.957ZM648.867 394.529L669.277 374.1V268.924H624.578V222.834L566.731 164.935V312.319L648.867 394.529ZM670.892 433.961H772.42L691.304 352.777L670.892 373.205L670.892 433.961ZM690.263 351.735L670.892 371.122V332.349L690.263 351.735ZM691.304 350.693L670.892 330.265V312.76H715.594V178.999L773.445 121.099V268.483L691.304 350.693ZM692.345 351.735L773.445 432.903V270.567L692.345 351.735ZM856.017 351.735L774.918 270.564V432.906L856.017 351.735ZM857.058 352.777L775.946 433.961H877.61V373.347L857.058 352.777ZM877.61 371.263L858.099 351.735L877.61 332.207V371.263ZM877.611 330.122L857.058 350.693L774.922 268.484V121.099L832.965 179.194V312.76H877.611V330.122ZM898.649 395.571L879.137 376.042V415.1L898.649 395.571ZM899.691 394.529L879.137 373.958V268.924H923.785V223.03L981.832 164.935V312.319L899.691 394.529ZM899.691 396.613L879.137 417.184V433.961H923.785V477.797H980.807L899.691 396.613ZM900.732 395.571L981.832 314.403V476.739L900.732 395.571ZM1064.4 395.571L983.305 314.4V476.742L1064.4 395.571ZM1065.45 396.613L984.333 477.797H1041.16V433.961H1085.86V417.049L1065.45 396.613ZM1085.86 414.965L1066.49 395.571L1085.86 376.176V414.965ZM1065.45 394.529L1085.86 374.092V268.924H1041.16V222.842L983.309 164.935V312.319L1065.45 394.529ZM1087.47 433.961H1189.01L1107.89 352.777L1087.47 373.213L1087.47 433.961ZM1106.85 351.735L1087.47 371.129V332.341L1106.85 351.735ZM1107.89 350.693L1087.47 330.257V312.76H1132.17V179.006L1190.04 121.095V268.48L1107.89 350.693ZM1108.93 351.735L1190.04 432.907V270.563L1108.93 351.735ZM1272.6 351.733L1191.51 270.564L1191.51 432.902L1272.6 351.733ZM1273.65 352.775L1192.53 433.961H1294.06V373.206L1273.65 352.775ZM1274.69 351.733L1294.06 332.344V371.122L1274.69 351.733ZM1294.06 330.26L1273.65 350.691L1191.51 268.48V121.096L1249.36 178.998V312.76H1294.06V330.26ZM1316.09 396.613L1295.67 417.046V433.961H1340.37V477.797H1397.2L1316.09 396.613ZM1315.04 395.571L1295.67 414.962V376.18L1315.04 395.571ZM1316.09 394.529L1295.67 374.101V268.924H1340.37V222.835L1398.23 164.935V312.319L1316.09 394.529ZM1317.13 395.571L1398.23 476.739V314.403L1317.13 395.571ZM1480.8 395.571L1399.7 314.4V476.742L1480.8 395.571ZM1481.84 396.613L1400.73 477.797H1457.55V433.961H1502.25V417.041L1481.84 396.613ZM1502.25 414.957L1482.88 395.571L1502.25 376.184V414.957ZM1481.84 394.529L1502.25 374.1V268.924H1457.55V222.834L1399.7 164.935V312.319L1481.84 394.529ZM1503.86 433.961H1605.39L1524.28 352.777L1503.87 373.205L1503.86 433.961ZM1523.24 351.735L1503.87 371.122V332.349L1523.24 351.735ZM1524.28 350.693L1503.87 330.265V312.76H1548.57V178.999L1606.42 121.099V268.483L1524.28 350.693ZM1525.32 351.735L1606.42 432.903V270.567L1525.32 351.735ZM1688.99 351.735L1607.89 270.564V432.906L1688.99 351.735ZM1690.03 352.777L1608.92 433.961H1710.58V373.347L1690.03 352.777ZM1710.58 371.264L1691.07 351.735L1710.58 332.207L1710.58 371.264ZM1710.58 330.122L1690.03 350.693L1607.89 268.484V121.099L1710.58 223.879V330.122ZM254.364 16.8276L356.034 118.582H254.497V57.1055L254.364 57.2393V16.8276ZM147.834 162.418L46.1643 60.6635V162.418H147.834ZM252.891 60.7975L151.36 162.418H208.191V118.582H252.891V60.7975ZM356.02 120.055L299.199 176.923V162.418H254.497V120.055H356.02ZM208.191 220.758L151.375 163.891H208.191V220.758ZM297.726 178.397L252.891 223.27V265.497L209.664 222.232V163.891H297.726V178.397ZM254.364 223.879L297.726 180.481V311.287H254.498V267.106L254.364 266.971V223.879ZM44.6914 267.105L147.82 163.891H1.4651V311.287H44.6914V267.105ZM209.664 224.316L252.761 267.451H209.664V224.316ZM564.229 162.418L462.696 60.8012V118.582H507.402V162.418H564.229ZM461.224 57.2432L461.086 57.1055V118.582H359.56L461.224 16.8277V57.2432ZM416.387 176.914L359.578 120.055H461.086V162.418H416.387V176.914ZM567.755 162.418L669.277 60.8053V118.582H624.578V162.418H567.755ZM772.406 120.055L715.594 176.915V162.418H670.892V120.055H772.406ZM670.892 57.1055L670.75 57.2471V16.8276L772.42 118.582H670.892V57.1055ZM567.77 163.891L624.578 220.75V163.891H567.77ZM714.121 178.389L669.277 223.27V265.489L626.051 222.224V163.891H714.121V178.389ZM714.121 180.473L670.75 223.879V266.963L670.892 267.106V311.287H714.121V180.473ZM417.86 178.389L462.701 223.27V265.489L505.929 222.225V163.891H417.86V178.389ZM461.086 267.105L461.228 266.963V223.88L417.86 180.473V311.287H461.086V267.105ZM507.402 220.751L564.215 163.891H507.402V220.751ZM462.823 267.451L505.929 224.309V267.451H462.823ZM669.155 267.451L626.051 224.308V267.451H669.155ZM775.946 118.582L877.61 16.8277V118.582H775.946ZM775.961 120.055L832.965 177.11V162.418H877.664V120.055H775.961ZM834.438 178.584L879.084 223.27V265.684L922.312 222.42V163.891H834.438V178.584ZM980.793 163.891L923.785 220.946V163.891H980.793ZM922.312 224.504L879.401 267.451H922.312V224.504ZM879.137 60.6635L980.807 162.418H923.785V118.582H879.137V60.6635ZM834.438 180.668L877.611 223.879V311.287H834.438V180.668ZM1087.34 16.8276L1189.01 118.582H1087.47V57.1055L1087.34 57.2394V16.8276ZM1085.86 60.7976L984.333 162.418H1041.16V118.582H1085.86V60.7976ZM1188.99 120.055L1132.17 176.923V162.418H1087.47V120.055H1188.99ZM1041.16 220.758L984.348 163.891H1041.16V220.758ZM1130.7 178.397L1085.86 223.27V265.497L1042.64 222.232V163.891H1130.7V178.397ZM1087.47 267.106L1087.34 266.971V223.879L1130.7 180.481V311.287H1087.47V267.106ZM1042.64 224.316L1085.73 267.451H1042.64V224.316ZM1397.2 162.418L1295.67 60.8013V118.582H1340.37V162.418H1397.2ZM1294.2 57.2433L1294.06 57.1055V118.582H1192.53L1294.2 16.8277V57.2433ZM1249.36 176.914L1192.55 120.055H1294.06V162.418H1249.36V176.914ZM1400.73 162.418L1502.25 60.8054V118.582H1457.55V162.418H1400.73ZM1605.38 120.055L1548.57 176.915V162.418H1503.86V120.055H1605.38ZM1503.86 57.1055L1503.72 57.2472V16.8276L1605.39 118.582H1503.86V57.1055ZM1400.74 163.891L1457.55 220.75V163.891H1400.74ZM1547.09 178.389L1502.25 223.27V265.489L1459.02 222.224V163.891H1547.09V178.389ZM1547.09 180.473L1503.72 223.879V266.963L1503.87 267.106V311.287H1547.09V180.473ZM1250.83 178.389L1295.67 223.27V265.489L1338.9 222.225V163.891H1250.83V178.389ZM1294.06 267.105L1294.2 266.963V223.88L1250.83 180.473V311.287H1294.06V267.105ZM1340.37 220.751L1397.19 163.891H1340.37V220.751ZM1295.8 267.451L1338.9 224.309V267.451H1295.8ZM1502.13 267.451L1459.02 224.308V267.451H1502.13ZM1608.92 118.582L1710.58 16.8277V118.582H1608.92ZM1608.93 120.055L1712.06 223.27V267.451H1755.28V120.055H1608.93ZM356.02 435.434L299.199 492.301V477.797H254.497V435.434H356.02ZM208.191 536.137L151.375 479.27H208.191V536.137ZM297.726 493.776L252.891 538.648V580.876L209.664 537.611V479.27H297.726V493.776ZM254.364 539.258L297.726 495.859V626.666H254.498V582.484L254.364 582.35V539.258ZM254.498 686.508L357.062 583.859V436.474L299.199 494.385V628.139H254.498V686.508ZM44.6914 582.484L147.82 479.27H1.4651V626.666H44.6914V582.484ZM148.859 480.314L46.1643 583.094V730.479L148.859 627.698V480.314ZM253.025 730.479L150.336 627.698V480.314L208.191 538.221V584.303H252.891V690.201L253.025 690.066V730.479ZM209.664 539.695L252.761 582.83H209.664V539.695ZM416.387 492.293L359.578 435.434H461.086V477.797H416.387V492.293ZM772.406 435.434L715.594 492.294V477.797H670.892V435.434H772.406ZM567.77 479.27L624.578 536.129V479.27H567.77ZM714.121 493.768L669.277 538.648V580.868L626.051 537.603V479.27H714.121V493.768ZM714.121 495.852L670.75 539.258V582.342L670.892 582.484V626.666H714.121V495.852ZM715.594 494.378L773.445 436.478V583.862L670.892 686.5V628.139H715.594V494.378ZM417.86 493.768L462.701 538.649V580.868L505.929 537.604V479.27H417.86V493.768ZM358.535 436.474L416.387 494.377V628.139H461.086V686.501L358.535 583.859V436.474ZM461.086 582.484L461.228 582.342V539.258L417.86 495.851V626.666H461.086V582.484ZM507.402 536.13L564.215 479.27H507.402V536.13ZM462.559 730.479L565.254 627.698V480.314L507.402 538.213V584.303H462.701V690.201L462.559 690.059V730.479ZM462.823 582.83L505.929 539.688V582.83H462.823ZM566.731 627.698L669.419 730.479V690.058L669.277 690.201V584.303H624.578V538.213L566.731 480.314V627.698ZM669.155 582.83L626.051 539.687V582.83H669.155ZM775.961 435.434L832.965 492.488V477.797H877.664V435.434H775.961ZM834.438 493.963L879.084 538.649V581.063L922.312 537.799V479.27H834.438V493.963ZM980.793 479.27L923.785 536.325V479.27H980.793ZM922.312 539.883L879.401 582.83H922.312V539.883ZM923.785 538.409L981.832 480.314V627.698L879.137 730.479V584.303H923.785V538.409ZM877.611 686.643L774.922 583.862V436.478L832.965 494.572V628.139H877.611V686.643ZM834.438 496.047L877.611 539.258V626.666H834.438V496.047ZM1188.99 435.434L1132.17 492.302V477.797H1087.47V435.434H1188.99ZM1041.16 536.137L984.348 479.27H1041.16V536.137ZM1130.7 493.776L1085.86 538.648V580.876L1042.64 537.611V479.27H1130.7V493.776ZM1087.47 582.484L1087.34 582.35V539.258L1130.7 495.859V626.666H1087.47V582.484ZM1087.47 686.508L1190.04 583.859V436.474L1132.17 494.385V628.139H1087.47V686.508ZM1086 730.479L983.309 627.698V480.314L1041.16 538.221V584.303H1085.86V690.201L1086 690.066V730.479ZM1042.64 539.695L1085.73 582.83H1042.64V539.695ZM1249.36 492.293L1192.55 435.434H1294.06V477.797H1249.36V492.293ZM1605.38 435.434L1548.57 492.294V477.797H1503.86V435.434H1605.38ZM1400.74 479.27L1457.55 536.129V479.27H1400.74ZM1547.09 493.768L1502.25 538.648V580.868L1459.02 537.603V479.27H1547.09V493.768ZM1547.09 495.852L1503.72 539.258V582.342L1503.87 582.484V626.666H1547.09V495.852ZM1548.57 494.378L1606.42 436.478V583.862L1503.87 686.5V628.139H1548.57V494.378ZM1250.83 493.768L1295.67 538.649V580.868L1338.9 537.604V479.27H1250.83V493.768ZM1191.51 436.474L1249.36 494.377V628.139H1294.06V686.501L1191.51 583.859V436.474ZM1294.06 582.484L1294.2 582.342V539.258L1250.83 495.851V626.666H1294.06V582.484ZM1340.37 536.13L1397.19 479.27H1340.37V536.13ZM1295.53 730.479L1398.23 627.698V480.314L1340.37 538.214V584.303H1295.67V690.201L1295.53 690.059V730.479ZM1295.8 582.83L1338.9 539.688V582.83H1295.8ZM1399.7 627.698L1502.39 730.479V690.058L1502.25 690.201V584.303H1457.55V538.213L1399.7 480.314V627.698ZM1502.13 582.83L1459.02 539.687V582.83H1502.13ZM1608.93 435.434L1712.06 538.649V582.83H1755.28V435.434H1608.93ZM1710.58 686.643L1607.89 583.862V436.478L1710.58 539.258V686.643ZM253.024 120.055H209.664V162.418H253.024V120.055ZM462.559 162.418V120.055H505.929V162.418H462.559ZM626.051 120.055H669.419V162.418H626.051V120.055ZM879.137 162.418H922.312V120.055H879.137V162.418ZM1086 120.055H1042.64V162.418H1086V120.055ZM1295.53 120.055H1338.9V162.418H1295.53V120.055ZM1459.02 120.055H1502.39V162.418H1459.02V120.055ZM253.024 435.434H209.664V477.797H253.024V435.434ZM462.559 477.797V435.434H505.929V477.797H462.559ZM626.051 435.434H669.419V477.797H626.051V435.434ZM879.137 477.797H922.312V435.434H879.137V477.797ZM1086 435.434H1042.64V477.797H1086V435.434ZM1295.53 435.434H1338.9V477.797H1295.53V435.434ZM1459.02 435.434H1502.39V477.797H1459.02V435.434Z" fill="currentColor"></path></svg>